<svg width="228" height="228" viewBox="0 0 228 228" fill="none" xmlns="http://www.w3.org/2000/svg">
  <path d="M129.497 25.0703H124.866C123.396 25.0703 122.194 26.2727 122.194 27.7422C122.194 29.2117 123.396 30.4141 124.866 30.4141H129.497C130.967 30.4141 132.169 29.2117 132.169 27.7422C132.169 26.2727 130.967 25.0703 129.497 25.0703Z" fill="#333333"/>
  <path d="M116.805 25.0703H94.3171C92.8476 25.0703 91.6453 26.2727 91.6453 27.7422C91.6453 29.2117 92.8476 30.4141 94.3171 30.4141H116.805C118.275 30.4141 119.477 29.2117 119.477 27.7422C119.477 26.2727 118.275 25.0703 116.805 25.0703Z" fill="#333333"/>
  <path d="M129.497 13.2695H124.866C123.396 13.2695 122.194 14.4719 122.194 15.9414C122.194 17.4109 123.396 18.6133 124.866 18.6133H129.497C130.967 18.6133 132.169 17.4109 132.169 15.9414C132.169 14.4719 130.967 13.2695 129.497 13.2695Z" fill="#333333"/>
  <path d="M116.805 13.2695H94.3171C92.8476 13.2695 91.6453 14.4719 91.6453 15.9414C91.6453 17.4109 92.8476 18.6133 94.3171 18.6133H116.805C118.275 18.6133 119.477 17.4109 119.477 15.9414C119.477 14.4719 118.275 13.2695 116.805 13.2695Z" fill="#333333"/>
  <path d="M129.497 36.916H124.866C123.396 36.916 122.194 38.1184 122.194 39.5879C122.194 41.0574 123.396 42.2598 124.866 42.2598H129.497C130.967 42.2598 132.169 41.0574 132.169 39.5879C132.169 38.1184 130.967 36.916 129.497 36.916Z" fill="#333333"/>
  <path d="M116.805 36.916H94.3171C92.8476 36.916 91.6453 38.1184 91.6453 39.5879C91.6453 41.0574 92.8476 42.2598 94.3171 42.2598H116.805C118.275 42.2598 119.477 41.0574 119.477 39.5879C119.477 38.1184 118.275 36.916 116.805 36.916Z" fill="#333333"/>
  <path d="M130.254 205.378C131.723 205.378 132.926 204.175 132.926 202.706V187.432C132.926 185.962 131.723 184.76 130.254 184.76C128.784 184.76 127.582 185.962 127.582 187.432V202.706C127.582 204.22 128.784 205.378 130.254 205.378Z" fill="#333333"/>
  <path d="M130.254 217.224C131.723 217.224 132.926 216.021 132.926 214.552V210.678C132.926 209.208 131.723 208.006 130.254 208.006C128.784 208.006 127.582 209.208 127.582 210.678V214.552C127.582 216.021 128.784 217.224 130.254 217.224Z" fill="#333333"/>
  <path d="M84.6093 106.252C79.5772 106.252 75.5249 110.304 75.5249 115.336C75.5249 120.368 79.5772 124.421 84.6093 124.421C89.6413 124.421 93.6936 120.368 93.6936 115.336C93.6936 110.349 89.6413 106.252 84.6093 106.252ZM84.6093 119.077C82.5608 119.077 80.8687 117.385 80.8687 115.336C80.8687 113.288 82.5608 111.596 84.6093 111.596C86.6577 111.596 88.3499 113.288 88.3499 115.336C88.3499 117.385 86.6577 119.077 84.6093 119.077Z" fill="#333333"/>
  <path d="M84.6093 128.695C79.5772 128.695 75.5249 132.748 75.5249 137.78C75.5249 142.812 79.5772 146.864 84.6093 146.864C89.6413 146.864 93.6936 142.812 93.6936 137.78C93.6936 132.748 89.6413 128.695 84.6093 128.695ZM84.6093 141.476C82.5608 141.476 80.8687 139.784 80.8687 137.735C80.8687 135.687 82.5608 133.995 84.6093 133.995C86.6577 133.995 88.3499 135.687 88.3499 137.735C88.3499 139.828 86.6577 141.476 84.6093 141.476Z" fill="#333333"/>
  <path d="M84.6093 151.094C79.5772 151.094 75.5249 155.146 75.5249 160.178C75.5249 165.21 79.5772 169.263 84.6093 169.263C89.6413 169.263 93.6936 165.21 93.6936 160.178C93.6936 155.146 89.6413 151.094 84.6093 151.094ZM84.6093 163.919C82.5608 163.919 80.8687 162.227 80.8687 160.178C80.8687 158.13 82.5608 156.438 84.6093 156.438C86.6577 156.438 88.3499 158.13 88.3499 160.178C88.3499 162.227 86.6577 163.919 84.6093 163.919Z" fill="#333333"/>
  <path d="M114 106.252C108.968 106.252 104.916 110.304 104.916 115.336C104.916 120.368 108.968 124.421 114 124.421C119.032 124.421 123.084 120.368 123.084 115.336C123.084 110.349 119.032 106.252 114 106.252ZM114 119.077C111.951 119.077 110.259 117.385 110.259 115.336C110.259 113.288 111.951 111.596 114 111.596C116.048 111.596 117.741 113.288 117.741 115.336C117.741 117.385 116.048 119.077 114 119.077Z" fill="#333333"/>
  <path d="M114 128.695C108.968 128.695 104.916 132.748 104.916 137.78C104.916 142.812 108.968 146.864 114 146.864C119.032 146.864 123.084 142.812 123.084 137.78C123.084 132.748 119.032 128.695 114 128.695ZM114 141.476C111.951 141.476 110.259 139.784 110.259 137.735C110.259 135.687 111.951 133.995 114 133.995C116.048 133.995 117.741 135.687 117.741 137.735C117.741 139.828 116.048 141.476 114 141.476Z" fill="#333333"/>
  <path d="M114 151.094C108.968 151.094 104.916 155.146 104.916 160.178C104.916 165.21 108.968 169.263 114 169.263C119.032 169.263 123.084 165.21 123.084 160.178C123.084 155.146 119.032 151.094 114 151.094ZM114 163.919C111.951 163.919 110.259 162.227 110.259 160.178C110.259 158.13 111.951 156.438 114 156.438C116.048 156.438 117.741 158.13 117.741 160.178C117.741 162.227 116.048 163.919 114 163.919Z" fill="#333333"/>
  <path d="M143.391 106.252C138.358 106.252 134.306 110.304 134.306 115.336C134.306 120.368 138.358 124.421 143.391 124.421C148.423 124.421 152.475 120.368 152.475 115.336C152.475 110.349 148.423 106.252 143.391 106.252ZM143.391 119.077C141.342 119.077 139.65 117.385 139.65 115.336C139.65 113.288 141.342 111.596 143.391 111.596C145.439 111.596 147.131 113.288 147.131 115.336C147.131 117.385 145.439 119.077 143.391 119.077Z" fill="#333333"/>
  <path d="M143.391 128.695C138.358 128.695 134.306 132.748 134.306 137.78C134.306 142.812 138.358 146.864 143.391 146.864C148.423 146.864 152.475 142.812 152.475 137.78C152.475 132.748 148.423 128.695 143.391 128.695ZM143.391 141.476C141.342 141.476 139.65 139.784 139.65 137.735C139.65 135.687 141.342 133.995 143.391 133.995C145.439 133.995 147.131 135.687 147.131 137.735C147.131 139.828 145.439 141.476 143.391 141.476Z" fill="#333333"/>
  <path d="M143.391 151.094C138.358 151.094 134.306 155.146 134.306 160.178C134.306 165.21 138.358 169.263 143.391 169.263C148.423 169.263 152.475 165.21 152.475 160.178C152.475 155.191 148.378 151.094 143.391 151.094ZM143.391 163.919C141.342 163.919 139.65 162.227 139.65 160.178C139.65 158.13 141.342 156.438 143.391 156.438C145.439 156.438 147.131 158.13 147.131 160.178C147.131 162.227 145.439 163.919 143.391 163.919Z" fill="#333333"/>
  <path d="M151.807 61.5859H76.1929C74.7233 61.5859 73.521 62.7883 73.521 64.2578V99.2594C73.521 100.729 74.7233 101.931 76.1929 101.931H87.9046C89.3741 101.931 90.5765 100.729 90.5765 99.2594C90.5765 97.7898 89.3741 96.5875 87.9046 96.5875H78.8647V66.9297H149.091V96.5875H105.717C104.248 96.5875 103.045 97.7898 103.045 99.2594C103.045 100.729 104.248 101.931 105.717 101.931H151.762C153.232 101.931 154.434 100.729 154.434 99.2594V64.2578C154.479 62.7883 153.276 61.5859 151.807 61.5859Z" fill="#333333"/>
  <path d="M155.993 48.9844H141.119V25.6945H161.159C162.628 25.6945 163.83 24.4922 163.83 23.0227C163.83 22.9781 163.83 22.9781 163.83 22.9336L163.608 16.1203C163.563 8.41641 157.329 2.22656 149.669 2.22656H149.625H97.3453C89.6859 2.22656 83.496 8.46094 83.4515 16.1203V48.9844H72.007C65.9062 48.9844 60.9632 53.9273 60.9187 60.0727V171.802C60.9187 177.902 65.8617 182.845 72.007 182.89H80.8687V216.555C80.8687 221.677 85.0101 225.773 90.1312 225.818H137.869C142.99 225.818 147.087 221.677 147.131 216.555V182.89H155.993C162.094 182.89 167.037 177.947 167.081 171.802V60.0727C167.037 53.9273 162.094 48.9844 155.993 48.9844ZM141.075 16.1648C141.119 11.4445 144.994 7.61484 149.714 7.65938C154.39 7.70391 158.219 11.4891 158.219 16.1648V16.2539L158.353 20.3508H141.075V16.1648ZM88.7953 16.1203C88.7953 11.4 92.6249 7.57031 97.3453 7.57031H138.715C136.8 10.0195 135.731 13.0477 135.731 16.1648V48.9844H88.7953V16.1203ZM141.787 216.511C141.787 218.648 140.051 220.385 137.869 220.43H90.1312C87.9937 220.43 86.2124 218.693 86.2124 216.511V182.845H141.743L141.787 216.511ZM161.693 171.802C161.693 174.963 159.11 177.502 155.948 177.546H72.007C68.8453 177.546 66.307 174.963 66.2625 171.802V60.0727C66.2625 56.9109 68.8453 54.3727 72.007 54.3281H155.993C159.155 54.3281 161.693 56.9109 161.737 60.0727L161.693 171.802Z" fill="#333333"/>
</svg>
